<?xml version="1.0"?>
<svg width="640" height="480" xmlns="http://www.w3.org/2000/svg" xmlns:svg="http://www.w3.org/2000/svg" xmlns:xlink="http://www.w3.org/1999/xlink">
 <!-- Created with SVG-edit - http://svg-edit.googlecode.com/ -->
 <defs>
  <symbol viewBox="0 0 480 480" id="svg_2" xmlns="http://www.w3.org/2000/svg" xmlns:xlink="http://www.w3.org/1999/xlink">
   <g id="svg_1">
    <path id="svg_4" fill-rule="evenodd" d="m237.223007,56.000999c-99.414001,0 -179.999996,80.577003 -179.999996,180.001015c0,99.404999 80.585995,180 179.999996,180c99.405991,0 180.001999,-80.595001 180.001999,-180c0,-99.424011 -80.596008,-180.001015 -180.001999,-180.001015zm90.602005,168.217995l-83.122986,83.126984c-4.117004,4.107025 -10.861023,4.107025 -14.973022,0l-83.104996,-83.108994c-4.110992,-4.106995 -4.110992,-10.842987 0,-14.953995l18.231995,-18.251007c6.939011,-6.937988 17.393005,-6.014999 23.549011,0.155014l41.32399,41.314987c4.111008,4.125 10.855011,4.125 14.973007,0l41.443008,-41.435989c6.946991,-6.955002 16.979004,-6.531998 23.47699,-0.018021l18.203003,18.203003c4.110992,4.108002 4.110992,10.860001 0,14.968002l0,0.000015z"/>
   </g>
  </symbol>
  <pattern height="100" width="100" y="0" x="0" patternUnits="userSpaceOnUse" id="gridpattern">
   <image height="100" width="100" y="0" x="0"/>
  </pattern>
  <symbol id="svg_6" viewBox="0 0 480 480" height="480px" width="480px" y="0px" x="0px" xmlns:xlink="http://www.w3.org/1999/xlink" xmlns="http://www.w3.org/2000/svg">
   <g id="svg_5">
    <path d="m237.223007,56.000999c-99.414001,0 -179.999996,80.577003 -179.999996,180.001015c0,99.404999 80.585995,180 179.999996,180c99.405991,0 180.001999,-80.595001 180.001999,-180c0,-99.424011 -80.596008,-180.001015 -180.001999,-180.001015zm90.602005,168.217995l-83.123001,83.126984c-4.117004,4.107025 -10.861008,4.107025 -14.973007,0l-83.104996,-83.108994c-4.110992,-4.106995 -4.110992,-10.842987 0,-14.953995l18.231995,-18.251007c6.939011,-6.937988 17.393005,-6.014999 23.549011,0.155014l41.32399,41.314987c4.111008,4.125 10.855011,4.125 14.973007,0l41.443008,-41.435989c6.946991,-6.955002 16.979004,-6.531998 23.47699,-0.018005l18.203003,18.203003c4.110992,4.108002 4.110992,10.860001 0,14.968002z" fill-rule="evenodd"/>
   </g>
  </symbol>
 </defs>
 <g>
  <title>Layer 1</title>
  <use id="svg_3" xlink:href="#svg_2"/>
  <use fill="#ff0000" xlink:href="#svg_6" id="svg_7"/>
  <polygon strokeWidth="5" strokecolor="#000000" fill="#ff0000" edge="0" orient="x" sides="5" shape="regularPoly" id="svg_9" cy="254.222222" cx="289.185185"/>
 </g>
</svg>